<?xml version="1.0" encoding="UTF-8"?>
<svg id="Layer_2" data-name="Layer 2" xmlns="http://www.w3.org/2000/svg" viewBox="0 0 2442.51 664">
  <g id="Layer_1-2" data-name="Layer 1">
    <g>
      <g>
        <path d="M860.46,473.71l-15-28.99h230.44v64.98h-282.92v-61.98l210.44-231.94,15,28.99h-221.94v-64.98h273.43v61.98l-209.44,231.94Z" style="fill: #fff;"/>
        <path d="M1164.37,230.78c-17.33,0-29.91-3.25-37.74-9.75-7.83-6.5-11.75-16.75-11.75-30.74s3.91-24.74,11.75-31.24c7.83-6.5,20.41-9.75,37.74-9.75s29.49,3.25,37.49,9.75c8,6.5,12,16.92,12,31.24s-4,24.24-12,30.74c-8,6.5-20.49,9.75-37.49,9.75ZM1206.86,259.77v249.93h-84.98v-249.93h84.98Z" style="fill: #fff;"/>
        <path d="M1386.3,254.77c26.32,0,49.4,5.08,69.23,15.25,19.82,10.17,35.32,24.99,46.49,44.49,11.16,19.49,16.75,42.91,16.75,70.23s-5.58,50.74-16.75,70.23c-11.17,19.49-26.66,34.33-46.49,44.49-19.83,10.17-42.91,15.25-69.23,15.25s-48.49-5.08-68.48-15.25c-19.99-10.16-35.58-24.99-46.74-44.49-11.17-19.49-16.75-42.9-16.75-70.23s5.58-50.74,16.75-70.23c11.16-19.49,26.74-34.32,46.74-44.49,19.99-10.16,42.82-15.25,68.48-15.25ZM1386.3,315.25c-9.67,0-18,2.34-24.99,7-7,4.67-12.33,12.17-16,22.49-3.67,10.33-5.5,23.67-5.5,39.99s1.83,29.58,5.5,39.74c3.66,10.17,9,17.67,16,22.49,7,4.83,15.32,7.25,24.99,7.25s18.5-2.41,25.49-7.25c7-4.83,12.32-12.32,16-22.49,3.66-10.16,5.5-23.41,5.5-39.74s-1.84-29.66-5.5-39.99c-3.67-10.33-9-17.82-16-22.49-7-4.66-15.5-7-25.49-7Z" style="fill: #fff;"/>
        <path d="M1566.75,509.7v-249.93h75.98l4.5,85.98-9.5-9.5c3.33-17.99,9.25-32.99,17.75-44.99,8.5-12,19.16-21.07,31.99-27.24,12.82-6.16,27.24-9.25,43.24-9.25,17.32,0,32.41,3.33,45.24,10,12.82,6.67,22.91,16.5,30.24,29.49,7.33,13,11,29.33,11,48.99v166.45h-84.98v-143.96c0-17.32-3.34-29.32-10-35.99-6.67-6.66-15.17-10-25.49-10-8,0-15.5,1.92-22.49,5.75-7,3.83-12.5,9.92-16.5,18.24-4,8.33-6,19.49-6,33.49v132.46h-84.98Z" style="fill: #fff;"/>
      </g>
      <g id="Yosemite_National_Park">
        <path d="M553.18,88.39c51.8,47.66,87.96,106.2,104.78,186.69,9.02,43.11,7.56,91.79-1.84,131.67-9.25,39.28-24.9,73.1-42.74,102.99-17.21,28.8-41.24,55.4-68.01,77.59-26.63,22.08-57.69,41.4-90.54,54.09-35.54,13.72-74.88,22.57-121.33,22.57s-82.92-10.23-119.49-24.45c-34.04-13.25-65.52-31.04-91.46-53.61-25.66-22.32-49.06-46.94-68.48-76.65-18.14-27.76-36.93-62.49-44.58-101.11-8.13-41.14-13.87-87.07-5.04-133.08,15.8-82.39,51.97-141.14,103.4-188.11C160.23,39.15,218.83,9.09,310.06.46c11.98-1.13,28.45.09,41.37.94,88.85,5.82,150.44,42.57,201.75,87ZM605.57,323.53c-2.68-33.76-8.79-63.79-19.3-88.88-35.03-83.59-97.21-144.14-192.11-166.02-19.52-4.5-40.67-8.98-62.5-8.93-46.36.08-87.26,11.6-120.87,27.27-34.11,15.92-62.58,37.34-85.03,64.43-38.53,45-73.65,106.28-67.55,193.75.79,11.45-.38,23.86,5.05,32.92,6.15-4.88,8.92-13.12,12.4-20.21,3.53-7.19,7.61-14.27,11.03-21.63,3.42-7.38,6.34-15.38,10.12-22.57,3.75-7.14,6.73-15.23,12.87-20.22,14.44.12,26.09,5.58,40.44,4.23,5.41-5.05,7.53-12.61,10.57-19.28,18.94-41.61,37.02-84.58,55.16-126.03,2.93-6.69,5.1-14.55,11.03-19.28,16.3.96,32.29,4.95,48.26,7.52,31.78,5.12,65.1,9.71,95.13,16.46,45.71,10.28,77.05,35,110.75,57.37,22.65,15.02,43.01,33.15,60.21,52.67,20.58,23.13,35.06,53.2,52.39,79,2.41,3.59,4.44,8.87,9.2,9.88,4.25-10.29,3.59-21.81,2.75-32.45ZM504.92,508.81c-15.73-21.25-27.45-47.07-34.92-75.71-10.09-38.63-17.5-79.66-32.18-115.69-6.87-16.89-16.62-32.12-27.57-46.09-15.78-20.12-32.66-42.78-55.62-54.56-19.57-10.04-48.99-12.46-74.45-16.46-5.24-.82-12.01-2.87-16.09-2.35-6.7.85-9.82,13.29-12.87,19.75-19.77,41.92-38.17,84.46-56.53,126.5-2.63,6.04-7.41,17.94-11.49,19.28-6.1,2-14.02-1.75-20.68-2.83-5.28-.85-17.44-3.47-22.06-1.88-3.57,1.24-5.24,6.99-7.35,11.29-10.73,21.84-21.07,41.32-31.25,62.55-2.96,6.18-11.84,19.26-11.49,26.33.14,2.88,4.22,9.09,6.89,13.17,18.98,29,42.86,55.7,68.47,74.77,31.48,23.43,67.1,40.76,111.22,51.73,22.01,5.48,48.77,8.22,73.53,6.58,61.3-4.04,110.16-26.91,148.44-55.02,7.57-5.56,15.73-11.18,21.14-19.75-4.22-7.74-9.94-14.58-15.16-21.62ZM496.65,303.78c4.54,19.82,11.07,40.48,16.09,61.61,2.39,10.08,4.86,20.43,7.81,30.57,3.03,10.41,4.66,21.32,7.81,31.04,4.86,14.98,13.16,30.19,21.6,42.33,2.66,3.83,7.05,10.78,11.03,10.34,4.16-.45,11.27-14.43,12.87-17.4,2.77-5.11,9.47-14.95,9.19-21.15-.22-4.86-6.06-12.72-9.19-18.81-10.07-19.62-19.91-34.09-30.34-53.61-6.44-12.07-12.95-23.97-20.22-35.75-5.89-9.57-16.82-26.24-26.65-30.57.18.81-.68,1.21,0,1.41Z" style="fill: #3a7ff8; fill-rule: evenodd;"/>
      </g>
      <g>
        <path d="M1981.23,246.25v-99h39c11.9,0,20.6,2.4,26.1,7.2,5.5,4.8,8.25,11.45,8.25,19.95,0,5.2-1.5,9.82-4.5,13.88-3,4.05-7.4,6.62-13.2,7.72v.15c6.4,1,11.38,3.62,14.93,7.88,3.55,4.25,5.32,9.18,5.32,14.77,0,8.5-3.1,15.2-9.3,20.1-6.2,4.9-15.2,7.35-27,7.35h-39.6ZM1996.98,189.85h22.05c12.6,0,18.9-4.85,18.9-14.55s-6.3-14.55-18.9-14.55h-22.05v29.1ZM1996.98,232.9h24.6c6.3,0,11.03-1.3,14.17-3.9,3.15-2.6,4.73-6.25,4.73-10.95s-1.58-8.35-4.73-10.95c-3.15-2.6-7.88-3.9-14.17-3.9h-24.6v29.7Z" style="fill: #ccc;"/>
        <path d="M2080.53,246.25v-99h71.7v13.8h-55.65v28.5h43.5v13.5h-43.5v29.4h57.75v13.8h-73.8Z" style="fill: #ccc;"/>
        <path d="M2249.58,147.25v13.8h-33.9v85.2h-16.05v-85.2h-33.9v-13.8h83.85Z" style="fill: #ccc;"/>
        <path d="M2337.78,246.25h-16.95l-9.45-25.95h-41.55l-9.45,25.95h-16.5l37.35-99h19.2l37.35,99ZM2274.33,207.25h32.55l-16.2-46.2-16.35,46.2Z" style="fill: #ccc;"/>
      </g>
      <rect x="1884.51" y="86.75" width="550" height="220" rx="109.63" ry="109.63" style="fill: none; stroke: #ccc; stroke-miterlimit: 10; stroke-width: 16px;"/>
    </g>
  </g>
</svg>